<?xml version="1.0" encoding="utf-8"?>
<!-- Generator: Adobe Illustrator 28.2.0, SVG Export Plug-In . SVG Version: 6.00 Build 0)  -->
<svg version="1.1" id="Laag_1" xmlns="http://www.w3.org/2000/svg" xmlns:xlink="http://www.w3.org/1999/xlink" x="0px" y="0px"
	 viewBox="0 0 289 512" style="enable-background:new 0 0 289 512;" xml:space="preserve">
<style type="text/css">
	.st0{fill:#FFFFFF;}
</style>
<g id="iL7HIP.tif">
	<g>
		<path class="st0" d="M0,249.5c2.9-11.2,10-19.4,17.9-27.5C86.1,152.6,154.1,83.1,222.1,13.6c11.1-11.3,24.2-15.6,39.5-11
			c27.9,8.4,34.9,42.7,17.4,62.3c-12.2,13.7-24.7,27-37,40.5c-45.6,49.7-91.3,99.5-136.9,149.2c-0.4,0.5-0.9,1-1.6,1.9
			c3.6,4,7.2,8.1,10.9,12.1c54.2,59,108.4,118,162.5,177.1c15.1,16.5,15.5,39.1,1.2,54.5c-5.7,6.2-13.1,9.4-20.9,11.9
			c-4.7,0-9.3,0-14,0c-12.4-3.3-20.8-12.2-29.4-21C148.6,424.2,83.3,357.5,17.9,290.9c-7.9-8-15-16.3-17.9-27.4
			C0,258.8,0,254.1,0,249.5z"/>
	</g>
</g>
</svg>
